<?xml version="1.0" encoding="UTF-8" standalone="no"?>
<!-- Created with Inkscape (http://www.inkscape.org/) -->

<svg
   version="1.1"
   id="svg2"
   width="1952.2874"
   height="1976.4767"
   viewBox="0 0 1952.2874 1976.4767"
   sodipodi:docname="circle.svg"
   inkscape:version="1.2 (dc2aedaf03, 2022-05-15)"
   xmlns:inkscape="http://www.inkscape.org/namespaces/inkscape"
   xmlns:sodipodi="http://sodipodi.sourceforge.net/DTD/sodipodi-0.dtd"
   xmlns="http://www.w3.org/2000/svg"
   xmlns:svg="http://www.w3.org/2000/svg">
  <defs
     id="defs6" />
  <sodipodi:namedview
     id="namedview4"
     pagecolor="#ffffff"
     bordercolor="#000000"
     borderopacity="0.25"
     inkscape:showpageshadow="2"
     inkscape:pageopacity="0.0"
     inkscape:pagecheckerboard="0"
     inkscape:deskcolor="#d1d1d1"
     showgrid="false"
     inkscape:zoom="0.25"
     inkscape:cx="200"
     inkscape:cy="1084"
     inkscape:window-width="1920"
     inkscape:window-height="974"
     inkscape:window-x="-11"
     inkscape:window-y="-11"
     inkscape:window-maximized="1"
     inkscape:current-layer="g8" />
  <g
     inkscape:groupmode="layer"
     inkscape:label="Image"
     id="g8"
     transform="translate(-62.300645,-35.424492)">
    <path
       style="fill:#ffd700;fill-opacity:0;stroke:#000000;stroke-width:4.0063;stroke-opacity:0"
       d="M 1011.3984,39.664062 C 913.27896,37.104404 815.46376,53.407471 723.23436,86.835936 406.99122,194.59478 156.17104,473.48172 84.063929,799.90948 59.970862,915.07988 60.618204,1034.4936 71.640624,1151.2031 c 31.072606,235.3265 156.950186,452.7554 329.578046,613.1468 134.00977,123.8513 306.48321,202.9176 485.12509,235.8298 77.47171,16.1574 157.11694,6.7561 235.59694,7.1895 168.3643,-5.5163 331.2405,-70.095 469.6174,-163.9219 93.1461,-64.4472 174.1365,-146.2335 242.0316,-236.6225 117.3689,-162.1069 185.7706,-361.7325 178.463,-562.8014 0.5054,-100.2236 -3.4506,-201.8058 -34.4183,-297.98188 C 1884.3861,410.91548 1599.1568,138.60419 1260.2525,60.421793 1178.8901,38.424765 1094.9788,38.928345 1011.3984,39.664062 Z M 1224.4688,1846.6641 c 9.2132,6.4146 -5.2733,8.4249 -1.3672,0 l 0.664,-0.062 z"
       id="path17298" />
    <path
       style="fill:#ffd700;fill-opacity:1;stroke:#000000;stroke-width:3.96904;stroke-opacity:0"
       d="m 1065.7456,51.440517 c 97.7552,-2.521608 195.2054,13.539211 287.0919,46.470977 315.0666,106.157446 564.9528,380.900646 636.7923,702.478476 24.0043,113.45886 23.359,231.09943 12.3781,346.07373 -30.9588,231.828 -156.3679,446.0284 -328.3524,604.0368 -133.5111,122.01 -305.3425,199.901 -483.32,232.3258 -77.1835,15.9166 -156.5318,6.656 -234.71842,7.0824 C 787.8774,1984.4728 625.60793,1920.8543 487.74623,1828.4221 394.94601,1764.9308 314.25757,1684.3632 246.61559,1595.3161 129.68397,1435.6176 61.535957,1238.9574 68.815165,1040.8766 68.311323,942.1422 72.252949,842.06916 103.10785,747.32224 196.00867,417.17579 480.17702,148.91061 817.81837,71.889844 898.87807,50.21964 982.47818,50.715724 1065.7456,51.440517 Z M 853.46932,1831.5913 c -9.17984,6.3199 5.25342,8.3003 1.36192,0 l -0.66183,-0.062 z"
       id="path19856" />
    <path
       style="fill:#ffd700;fill-opacity:0;stroke:#000000;stroke-width:4.0063;stroke-opacity:0"
       d="M 1018.7656,37.492187 C 856.9306,36.682017 696.7034,82.05278 556.97316,163.0965 326.04043,294.52783 150.62185,522.9412 88.0625,781.7422 c -29.29563,108.76872 -23.419253,222.51 -19.260855,333.8903 8.435749,166.2839 79.306315,322.9413 169.432725,460.4144 119.38519,179.6855 297.98603,319.8362 503.55319,386.8643 86.97416,29.1127 177.95092,51.8932 270.39994,46.0731 94.1732,0.5548 189.6548,0.1496 280.7149,-27.1934 175.018,-45.4185 334.4447,-143.8555 457.399,-275.9669 136.6317,-140.1529 226.0203,-325.4654 255.4408,-518.6443 8.157,-103.6196 9.9942,-208.43019 -0.5345,-311.96238 C 1966.0743,582.08088 1782.0952,314.78903 1526.4466,167.5327 1387.3681,84.084568 1226.463,38.656295 1064.2109,37.757812 c -15.1463,-0.324621 -30.2961,-0.402763 -45.4453,-0.265625 z"
       id="path22135" />
    <path
       style="fill:#ff4b00;fill-opacity:0;stroke:#000000;stroke-width:4.0063;stroke-opacity:0"
       d="M 1018.7656,37.492187 C 856.9306,36.682017 696.7034,82.05278 556.97316,163.0965 326.04043,294.52783 150.62185,522.9412 88.0625,781.7422 c -29.29563,108.76872 -23.419253,222.51 -19.260855,333.8903 8.435749,166.2839 79.306315,322.9413 169.432725,460.4144 119.38519,179.6855 297.98603,319.8362 503.55319,386.8643 86.97416,29.1127 177.95092,51.8932 270.39994,46.0731 94.1732,0.5548 189.6548,0.1496 280.7149,-27.1934 175.018,-45.4185 334.4447,-143.8555 457.399,-275.9669 136.6317,-140.1529 226.0203,-325.4654 255.4408,-518.6443 8.157,-103.6196 9.9942,-208.43019 -0.5345,-311.96238 C 1966.0743,582.08088 1782.0952,314.78903 1526.4466,167.5327 1387.3681,84.084568 1226.463,38.656295 1064.2109,37.757812 c -15.1463,-0.324621 -30.2961,-0.402763 -45.4453,-0.265625 z"
       id="path22344" />
  </g>
</svg>
